<?xml version="1.0" encoding="iso-8859-1"?>
<!-- Uploaded to: SVG Repo, www.svgrepo.com, Transformed by: SVG Repo Mixer Tools -->
<svg height="800px" width="800px" version="1.1" id="Layer_1" xmlns="http://www.w3.org/2000/svg" xmlns:xlink="http://www.w3.org/1999/xlink" 
	 viewBox="0 0 512 512" xml:space="preserve">
<path style="fill:#959CB5;" d="M477.166,424.086H34.834c-14.658,0-26.54-11.882-26.54-26.54V114.454
	c0-14.658,11.882-26.54,26.54-26.54h442.333c14.658,0,26.54,11.882,26.54,26.54v283.093
	C503.706,412.204,491.824,424.086,477.166,424.086z"/>
<path style="fill:#8A90A7;" d="M35.932,424.086C66.892,274.499,167.828,150.6,302.955,87.914H34.834
	c-14.658,0-26.54,11.882-26.54,26.54v283.093c0,14.658,11.882,26.54,26.54,26.54H35.932z"/>
<g>
	<path style="fill:#AFB9D2;" d="M87.914,194.073h-8.847c-14.658,0-26.54-11.882-26.54-26.54l0,0c0-14.658,11.882-26.54,26.54-26.54
		h8.847c14.658,0,26.54,11.882,26.54,26.54l0,0C114.454,182.191,102.571,194.073,87.914,194.073z"/>
	<path style="fill:#AFB9D2;" d="M87.914,282.54h-8.847c-14.658,0-26.54-11.882-26.54-26.54l0,0c0-14.658,11.882-26.54,26.54-26.54
		h8.847c14.658,0,26.54,11.882,26.54,26.54l0,0C114.454,270.658,102.571,282.54,87.914,282.54z"/>
	<path style="fill:#AFB9D2;" d="M185.227,194.073h-8.847c-14.658,0-26.54-11.882-26.54-26.54l0,0c0-14.658,11.882-26.54,26.54-26.54
		h8.847c14.658,0,26.54,11.882,26.54,26.54l0,0C211.767,182.191,199.885,194.073,185.227,194.073z"/>
</g>
<path style="fill:#B4E66E;" d="M87.914,371.006h-8.847c-14.658,0-26.54-11.882-26.54-26.54l0,0c0-14.658,11.882-26.54,26.54-26.54
	h8.847c14.658,0,26.54,11.882,26.54,26.54l0,0C114.454,359.124,102.571,371.006,87.914,371.006z"/>
<g>
	<path style="fill:#AFB9D2;" d="M185.227,282.54h-8.847c-14.658,0-26.54-11.882-26.54-26.54l0,0c0-14.658,11.882-26.54,26.54-26.54
		h8.847c14.658,0,26.54,11.882,26.54,26.54l0,0C211.767,270.658,199.885,282.54,185.227,282.54z"/>
	<path style="fill:#AFB9D2;" d="M282.54,194.073h-8.847c-14.658,0-26.54-11.882-26.54-26.54l0,0c0-14.658,11.882-26.54,26.54-26.54
		h8.847c14.658,0,26.54,11.882,26.54,26.54l0,0C309.08,182.191,297.198,194.073,282.54,194.073z"/>
</g>
<path style="fill:#FF5050;" d="M282.54,371.006h-8.847c-14.658,0-26.54-11.882-26.54-26.54l0,0c0-14.658,11.882-26.54,26.54-26.54
	h8.847c14.658,0,26.54,11.882,26.54,26.54l0,0C309.08,359.124,297.198,371.006,282.54,371.006z"/>
<path style="fill:#AFB9D2;" d="M282.54,282.54h-8.847c-14.658,0-26.54-11.882-26.54-26.54l0,0c0-14.658,11.882-26.54,26.54-26.54
	h8.847c14.658,0,26.54,11.882,26.54,26.54l0,0C309.08,270.658,297.198,282.54,282.54,282.54z"/>
<path style="fill:#464655;" d="M463.896,220.613c0-22.278-20.586-39.748-43.774-34.422c-12.761,2.93-23.103,13.309-26.036,26.07
	c-3.969,17.268,4.752,32.841,18.554,39.821l-10.67,74.691h53.08l-10.67-74.691C455.911,246.25,463.896,234.419,463.896,220.613z"/>
<path style="fill:#FFDC64;" d="M185.227,371.006h-8.847c-14.658,0-26.54-11.882-26.54-26.54l0,0c0-14.658,11.882-26.54,26.54-26.54
	h8.847c14.658,0,26.54,11.882,26.54,26.54l0,0C211.767,359.124,199.885,371.006,185.227,371.006z"/>
<path d="M477.166,79.62H34.834C15.627,79.62,0,95.246,0,114.454v283.093c0,19.207,15.627,34.834,34.834,34.834h442.333
	c19.207,0,34.834-15.627,34.834-34.834V114.454C512,95.246,496.373,79.62,477.166,79.62z M495.413,397.546
	c0,10.061-8.185,18.246-18.246,18.246H34.834c-10.061,0-18.246-8.185-18.246-18.246V114.454c0-10.061,8.185-18.246,18.246-18.246
	h442.333c10.061,0,18.246,8.185,18.246,18.246V397.546z"/>
<path d="M87.914,132.7h-8.847c-19.207,0-34.834,15.626-34.834,34.834s15.627,34.834,34.834,34.834h8.847
	c19.207,0,34.834-15.627,34.834-34.834S107.121,132.7,87.914,132.7z M87.914,185.78h-8.847c-10.061,0-18.246-8.185-18.246-18.246
	c0-10.061,8.185-18.246,18.246-18.246h8.847c10.061,0,18.246,8.185,18.246,18.246C106.16,177.594,97.974,185.78,87.914,185.78z"/>
<path d="M87.914,309.633h-8.847c-19.207,0-34.834,15.627-34.834,34.834c0,19.207,15.627,34.834,34.834,34.834h8.847
	c19.207,0,34.834-15.627,34.834-34.834C122.747,325.259,107.121,309.633,87.914,309.633z M87.914,362.713h-8.847
	c-10.061,0-18.246-8.185-18.246-18.246s8.185-18.246,18.246-18.246h8.847c10.061,0,18.246,8.185,18.246,18.246
	S97.974,362.713,87.914,362.713z"/>
<path d="M87.914,221.166h-8.847c-19.207,0-34.834,15.626-34.834,34.834s15.627,34.834,34.834,34.834h8.847
	c19.207,0,34.834-15.626,34.834-34.834S107.121,221.166,87.914,221.166z M87.914,274.246h-8.847
	c-10.061,0-18.246-8.185-18.246-18.246c0-10.061,8.185-18.246,18.246-18.246h8.847c10.061,0,18.246,8.185,18.246,18.246
	C106.16,266.061,97.974,274.246,87.914,274.246z"/>
<path d="M185.227,132.7h-8.847c-19.207,0-34.834,15.626-34.834,34.834s15.626,34.834,34.834,34.834h8.847
	c19.207,0,34.834-15.627,34.834-34.834S204.434,132.7,185.227,132.7z M185.227,185.78h-8.847c-10.061,0-18.246-8.185-18.246-18.246
	c0-10.061,8.185-18.246,18.246-18.246h8.847c10.061,0,18.246,8.185,18.246,18.246C203.473,177.594,195.288,185.78,185.227,185.78z"
	/>
<path d="M185.227,309.633h-8.847c-19.207,0-34.834,15.627-34.834,34.834c0,19.207,15.626,34.834,34.834,34.834h8.847
	c19.207,0,34.834-15.627,34.834-34.834C220.06,325.259,204.434,309.633,185.227,309.633z M185.227,362.713h-8.847
	c-10.061,0-18.246-8.185-18.246-18.246s8.185-18.246,18.246-18.246h8.847c10.061,0,18.246,8.185,18.246,18.246
	S195.288,362.713,185.227,362.713z"/>
<path d="M185.227,221.166h-8.847c-19.207,0-34.834,15.626-34.834,34.834s15.626,34.834,34.834,34.834h8.847
	c19.207,0,34.834-15.626,34.834-34.834S204.434,221.166,185.227,221.166z M185.227,274.246h-8.847
	c-10.061,0-18.246-8.185-18.246-18.246c0-10.061,8.185-18.246,18.246-18.246h8.847c10.061,0,18.246,8.185,18.246,18.246
	C203.473,266.061,195.288,274.246,185.227,274.246z"/>
<path d="M282.54,132.7h-8.847c-19.207,0-34.834,15.626-34.834,34.834s15.626,34.834,34.834,34.834h8.847
	c19.207,0,34.834-15.627,34.834-34.834S301.747,132.7,282.54,132.7z M282.54,185.78h-8.847c-10.061,0-18.246-8.185-18.246-18.246
	c0-10.061,8.185-18.246,18.246-18.246h8.847c10.061,0,18.246,8.185,18.246,18.246C300.786,177.594,292.601,185.78,282.54,185.78z"/>
<path d="M282.54,309.633h-8.847c-19.207,0-34.834,15.627-34.834,34.834c0,19.207,15.626,34.834,34.834,34.834h8.847
	c19.207,0,34.834-15.627,34.834-34.834C317.374,325.259,301.747,309.633,282.54,309.633z M282.54,362.713h-8.847
	c-10.061,0-18.246-8.185-18.246-18.246s8.185-18.246,18.246-18.246h8.847c10.061,0,18.246,8.185,18.246,18.246
	S292.601,362.713,282.54,362.713z"/>
<path d="M282.54,221.166h-8.847c-19.207,0-34.834,15.626-34.834,34.834s15.626,34.834,34.834,34.834h8.847
	c19.207,0,34.834-15.626,34.834-34.834S301.747,221.166,282.54,221.166z M282.54,274.246h-8.847
	c-10.061,0-18.246-8.185-18.246-18.246c0-10.061,8.185-18.246,18.246-18.246h8.847c10.061,0,18.246,8.185,18.246,18.246
	C300.786,266.061,292.601,274.246,282.54,274.246z"/>
<path d="M472.19,220.613c0-24.085-19.595-43.68-43.68-43.68c-24.085,0-43.68,19.595-43.68,43.68c0,14.429,7.081,27.65,18.82,35.754
	l-9.891,69.234c-0.34,2.38,0.369,4.79,1.945,6.607s3.862,2.86,6.266,2.86h53.08c2.404,0,4.69-1.043,6.266-2.86
	c1.575-1.817,2.285-4.226,1.945-6.607l-9.891-69.234C465.109,248.264,472.19,235.042,472.19,220.613z M440.636,244.681
	c-3.174,1.605-4.971,5.054-4.468,8.574l9.319,65.225h-33.955l9.318-65.225c0.503-3.52-1.294-6.969-4.468-8.574
	c-9.231-4.669-14.966-13.89-14.966-24.067c0-14.939,12.154-27.093,27.093-27.093s27.093,12.154,27.093,27.093
	C455.603,230.79,449.868,240.012,440.636,244.681z"/>
<path d="M353.313,185.78c-4.58,0-8.294,3.713-8.294,8.294v176.933c0,4.58,3.713,8.294,8.294,8.294s8.294-3.713,8.294-8.294V194.073
	C361.607,189.492,357.894,185.78,353.313,185.78z"/>
<path d="M353.313,132.7c-4.58,0-8.294,3.713-8.294,8.294v17.697c0,4.58,3.713,8.294,8.294,8.294s8.294-3.713,8.294-8.294v-17.697
	C361.607,136.413,357.894,132.7,353.313,132.7z"/>
</svg>